<?xml version="1.0" encoding="UTF-8"?>
<!DOCTYPE svg PUBLIC "-//W3C//DTD SVG 1.1//EN" "http://www.w3.org/Graphics/SVG/1.1/DTD/svg11.dtd">
<!-- Creator: CorelDRAW -->
<svg xmlns="http://www.w3.org/2000/svg" xml:space="preserve" width="87px" height="57px" version="1.1" style="shape-rendering:geometricPrecision; text-rendering:geometricPrecision; image-rendering:optimizeQuality; fill-rule:evenodd; clip-rule:evenodd"
viewBox="0 0 12.53 8.24"
 xmlns:xlink="http://www.w3.org/1999/xlink"
 xmlns:xodm="http://www.corel.com/coreldraw/odm/2003">
 <defs>
  <style type="text/css">
   <![CDATA[
    .str0 {stroke:#FEFEFE;stroke-width:0.06;stroke-miterlimit:2.61313}
    .str1 {stroke:#1BD7F0;stroke-width:0.06;stroke-miterlimit:2.61313}
    .str2 {stroke:#FF2A6C;stroke-width:0.06;stroke-miterlimit:2.61313}
    .fil4 {fill:none}
    .fil0 {fill:#FEFEFE}
    .fil1 {fill:#1BD7F0}
    .fil2 {fill:#FF2A6C}
    .fil3 {fill:#373435;fill-rule:nonzero}
   ]]>
  </style>
 </defs>
 <g id="Layer_x0020_1">
  <metadata id="CorelCorpID_0Corel-Layer"/>
  <g id="_1662903870160">
   <rect class="fil0 str0" x="0.97" y="0.03" width="10.6" height="8.18" rx="3.38" ry="2.31"/>
   <path class="fil1 str1" d="M0.03 5.87c0,1.29 1.05,2.34 2.34,2.34l1.21 0c-1.44,0 -2.61,-1.18 -2.61,-2.61l0 -2.96c0,-1.44 1.17,-2.61 2.61,-2.61l-1.21 0c-1.29,0 -2.34,1.05 -2.34,2.34l0 3.5z"/>
   <path class="fil2 str2" d="M11.57 2.64l0 2.96c0,1.43 -1.18,2.61 -2.61,2.61l1.59 0c1.07,0 1.95,-0.88 1.95,-1.95l0 -4.28c0,-1.07 -0.88,-1.95 -1.95,-1.95l-1.59 0c1.43,0 2.61,1.17 2.61,2.61z"/>
   <polygon class="fil3" points="5.91,6.04 5.91,4.45 4.24,4.45 4.24,3.78 5.91,3.78 5.91,2.2 6.62,2.2 6.62,3.78 8.29,3.78 8.29,4.45 6.62,4.45 6.62,6.04 "/>
   <line class="fil4 str1" x1="3.1" y1="8.21" x2="4.15" y2= "8.21" />
   <line class="fil4 str2" x1="8.96" y1="8.21" x2="8.47" y2= "8.21" />
   <line class="fil4 str1" x1="3.44" y1="0.03" x2="4.07" y2= "0.03" />
   <line class="fil4 str2" x1="9.03" y1="0.03" x2="8.5" y2= "0.03" />
  </g>
 </g>
</svg>
